<?xml version="1.0" standalone="no"?>
<!DOCTYPE svg PUBLIC "-//W3C//DTD SVG 20010904//EN"
 "http://www.w3.org/TR/2001/REC-SVG-20010904/DTD/svg10.dtd">
<svg version="1.0" xmlns="http://www.w3.org/2000/svg"
 width="960.000000pt" height="960.000000pt" viewBox="0 0 960.000000 960.000000"
 preserveAspectRatio="xMidYMid meet">

<g transform="translate(0.000000,960.000000) scale(0.100000,-0.100000)"
fill="#000000" stroke="none">
<path d="M4550 8024 c-281 -26 -618 -151 -880 -327 -475 -319 -768 -798 -845
-1385 -51 -382 19 -793 192 -1141 407 -818 1282 -1244 2188 -1065 584 115
1061 474 1348 1014 70 132 107 225 152 380 66 228 79 328 79 575 -1 251 -16
363 -79 570 -47 155 -81 235 -156 370 -292 526 -786 876 -1400 991 -82 16
-491 27 -599 18z m192 -276 l3 -163 55 0 55 0 3 163 2 162 43 0 c68 0 304 -38
403 -65 86 -23 171 -53 256 -89 l38 -16 -76 -151 c-41 -83 -74 -152 -72 -153
2 -1 25 -15 51 -30 l48 -27 74 156 75 157 48 -28 c144 -83 320 -221 423 -330
60 -64 144 -173 138 -178 -2 -2 -58 -37 -124 -79 -66 -42 -128 -82 -139 -90
-20 -14 -21 -10 40 -106 2 -2 68 38 149 89 80 51 147 91 149 89 88 -123 192
-378 236 -576 33 -150 44 -136 -129 -157 -82 -10 -154 -22 -160 -25 -14 -9 -2
-111 13 -110 6 0 78 8 159 18 81 10 150 15 152 11 12 -20 15 -173 6 -285 -11
-134 -32 -249 -71 -393 -21 -79 -24 -83 -47 -77 -19 4 -98 36 -280 112 -7 3
-18 -15 -27 -48 -19 -62 -19 -69 -6 -69 9 0 280 -109 289 -116 6 -5 -80 -179
-133 -268 -78 -131 -271 -376 -296 -376 -5 0 -59 59 -121 130 l-113 131 -38
-38 c-21 -20 -38 -41 -38 -46 0 -5 47 -64 105 -131 57 -66 105 -125 105 -130
1 -4 -40 -39 -92 -77 -100 -74 -268 -169 -387 -219 -91 -39 -305 -95 -437
-115 -115 -17 -380 -20 -504 -5 -109 14 -353 73 -438 106 -157 63 -386 193
-510 291 l-22 18 110 122 c60 68 110 126 110 131 0 4 -17 25 -39 46 l-39 38
-113 -126 c-63 -69 -117 -126 -120 -126 -11 0 -107 108 -182 205 -105 136
-255 397 -245 427 3 8 172 82 253 110 17 6 34 14 38 18 9 8 -10 87 -23 103 -4
5 -43 -6 -86 -23 -44 -18 -113 -44 -155 -60 l-77 -27 -21 71 c-31 109 -48 183
-62 271 -16 97 -18 410 -4 423 6 5 71 1 160 -10 82 -10 155 -16 162 -14 8 4
13 24 13 55 0 58 10 53 -174 76 -72 9 -136 18 -142 20 -9 3 -8 22 2 72 39 189
104 378 180 522 74 141 53 137 206 38 73 -47 140 -88 148 -91 10 -4 23 8 40
36 14 24 25 46 25 50 0 4 -61 46 -135 94 -74 47 -137 88 -139 90 -18 16 183
234 308 333 83 66 281 201 296 201 3 0 22 -35 41 -77 20 -43 51 -112 71 -154
l35 -76 49 20 c27 12 49 27 49 35 0 7 -31 79 -70 158 l-69 146 62 28 c100 45
247 88 374 109 153 26 166 28 240 30 l63 1 2 -162z"/>
<path d="M4781 7242 c-23 -211 -48 -403 -54 -409 -3 -3 -52 29 -108 71 -56 43
-96 68 -88 57 8 -11 42 -59 77 -107 43 -59 60 -89 52 -94 -12 -8 -32 -10 -325
-35 -99 -9 -181 -17 -182 -19 -2 -1 113 -18 255 -36 141 -18 259 -34 261 -36
2 -2 -31 -51 -73 -110 -69 -95 -73 -103 -39 -77 78 61 165 115 172 107 10 -11
61 -184 61 -204 0 -30 17 8 45 100 16 52 32 99 36 104 4 4 47 -18 96 -50 48
-33 93 -62 100 -67 7 -4 -21 36 -62 90 -61 82 -71 99 -57 105 9 4 89 16 177
28 266 34 331 44 300 47 -351 33 -481 47 -488 52 -4 4 28 55 71 112 l78 106
-107 -78 -107 -78 -6 37 c-4 20 -20 140 -36 266 -16 126 -31 230 -33 232 -2 2
-9 -49 -16 -114z"/>
<path d="M3819 5995 c-118 -119 -223 -231 -234 -249 l-19 -34 139 -153 c77
-85 225 -246 330 -359 105 -113 271 -293 370 -400 300 -326 365 -390 397 -390
35 0 37 2 309 300 123 135 256 279 295 320 241 255 624 680 624 692 0 8 -104
121 -231 251 l-231 237 -768 0 -768 0 -213 -215z m1125 -203 c-85 -1 -223 -1
-307 0 l-152 3 158 154 158 153 148 -153 148 -154 -153 -3z m-335 289 c-1 -3
-64 -66 -139 -139 l-137 -133 -82 136 c-44 75 -81 139 -81 141 0 3 99 4 220 3
121 -1 219 -5 219 -8z m769 -89 c-29 -50 -66 -114 -81 -143 l-29 -52 -139 139
-139 139 217 5 c120 3 219 4 221 4 2 -1 -21 -42 -50 -92z m-1272 -39 c32 -54
69 -113 82 -130 l24 -33 -206 0 c-113 0 -206 3 -206 6 0 4 235 246 246 253 1
1 28 -43 60 -96z m1571 -25 c68 -68 123 -126 123 -130 0 -5 -90 -8 -201 -8
l-200 0 26 43 c14 23 46 81 71 130 24 48 47 87 51 87 4 0 62 -55 130 -122z
m-1337 -453 c109 -272 176 -441 220 -558 21 -56 46 -120 55 -142 l17 -40 -33
35 c-18 19 -123 132 -233 250 -111 119 -248 267 -306 330 -58 63 -130 141
-161 174 -31 34 -70 78 -88 98 -31 36 -31 37 -9 40 13 2 122 3 242 3 l220 0
76 -190z m771 -47 c-93 -232 -236 -600 -301 -773 -11 -29 -15 -22 -85 160 -40
105 -105 273 -145 375 -116 297 -180 464 -180 473 0 4 182 7 404 7 l403 0 -96
-242z m709 234 c0 -3 -145 -162 -455 -497 -56 -60 -151 -164 -211 -230 -159
-174 -177 -193 -169 -170 4 11 24 67 45 125 45 124 213 549 265 669 19 47 33
91 30 99 -4 12 31 14 245 11 137 -2 250 -5 250 -7z"/>
<path d="M5329 3832 c-25 -20 -74 -59 -109 -86 l-64 -49 28 -24 28 -24 37 22
c85 50 230 145 231 150 0 6 -46 27 -95 45 -5 2 -31 -13 -56 -34z"/>
<path d="M6195 3580 c-63 -10 -154 -42 -209 -74 -57 -33 -157 -142 -184 -200
-54 -114 -69 -319 -34 -448 58 -209 246 -332 507 -331 117 0 167 11 293 60 90
35 112 55 72 66 -18 5 -20 14 -22 104 0 54 0 109 1 123 3 33 27 58 59 62 15 2
26 10 28 21 2 16 -13 17 -202 17 -168 0 -204 -2 -204 -14 0 -9 20 -19 51 -26
72 -18 83 -38 90 -180 3 -63 2 -122 -2 -131 -23 -45 -182 -54 -264 -15 -148
69 -236 267 -222 501 10 161 50 270 128 345 51 49 95 65 189 65 62 0 85 -5
132 -28 68 -33 119 -89 149 -163 13 -30 29 -54 37 -54 12 0 14 16 8 98 -11
163 -10 160 -71 177 -114 34 -221 42 -330 25z"/>
<path d="M7250 3583 c-103 -17 -190 -61 -268 -137 -125 -119 -167 -234 -160
-437 4 -122 5 -129 40 -200 85 -172 261 -281 454 -281 207 0 384 104 470 276
131 266 39 607 -196 726 -97 49 -235 71 -340 53z m153 -69 c56 -19 129 -81
161 -137 101 -174 97 -494 -7 -667 -45 -77 -107 -113 -199 -118 -87 -5 -142
14 -202 73 -90 87 -136 222 -136 401 0 115 9 175 40 257 62 165 197 241 343
191z"/>
<path d="M2018 3561 c-135 -53 -188 -130 -188 -270 0 -78 21 -130 74 -183 42
-43 89 -72 241 -148 127 -64 161 -101 171 -186 17 -138 -101 -223 -250 -180
-97 28 -169 109 -197 220 -8 34 -16 46 -30 46 -18 0 -19 -9 -19 -134 l0 -134
48 -20 c138 -58 324 -63 439 -12 56 25 132 96 154 145 29 64 26 187 -7 253
-33 67 -70 95 -245 188 -155 82 -194 111 -215 161 -33 76 -1 168 70 202 133
65 273 -21 330 -201 3 -10 12 -18 19 -18 10 0 16 21 21 77 11 137 9 151 -22
167 -92 47 -304 62 -394 27z"/>
<path d="M2530 3548 c0 -9 17 -20 39 -27 59 -17 106 -77 267 -341 l144 -235 0
-120 c0 -128 -10 -189 -33 -212 -8 -8 -33 -17 -56 -20 -31 -4 -41 -10 -41 -24
0 -18 12 -19 225 -19 218 0 225 1 225 20 0 16 -7 20 -30 20 -49 0 -88 26 -98
64 -6 19 -8 94 -5 167 l5 134 41 70 c92 159 245 393 286 438 29 32 94 69 113
65 6 -2 13 4 15 13 4 15 -13 17 -174 14 -114 -2 -179 -7 -181 -14 -2 -5 9 -13
25 -16 85 -18 100 -53 57 -137 -42 -83 -207 -358 -215 -358 -13 0 -246 389
-256 429 -8 32 8 55 41 59 14 2 26 10 26 18 0 12 -31 14 -187 14 -104 0 -198
3 -210 6 -16 5 -23 2 -23 -8z"/>
<path d="M3674 3549 c-9 -15 14 -29 48 -29 15 0 40 -11 55 -24 l28 -24 0 -412
0 -412 -33 -29 c-18 -16 -41 -29 -51 -29 -30 0 -51 -11 -51 -26 0 -21 345 -21
353 0 7 19 -1 26 -30 26 -13 0 -36 6 -52 14 -54 28 -56 41 -59 421 -2 192 -1
347 1 345 3 -3 65 -75 138 -160 74 -86 217 -252 319 -369 102 -118 203 -236
224 -263 28 -34 46 -48 60 -46 19 3 20 11 24 448 2 268 7 458 14 478 10 34 58
72 91 72 9 0 17 7 17 15 0 13 -25 15 -165 15 -134 0 -165 -3 -165 -14 0 -8 15
-17 33 -20 38 -7 70 -36 88 -81 14 -34 25 -585 12 -585 -9 1 -28 22 -375 425
l-234 270 -141 3 c-98 2 -144 -1 -149 -9z"/>
<path d="M4870 3545 c0 -7 19 -19 42 -27 27 -8 47 -22 55 -38 10 -19 12 -118
11 -431 -3 -458 0 -438 -80 -459 -22 -6 -38 -17 -38 -25 0 -13 53 -15 374 -15
l374 0 5 43 c6 43 20 191 19 204 -1 23 -21 7 -40 -33 -62 -127 -116 -158 -275
-159 -153 0 -147 -10 -147 247 l0 200 111 -4 111 -3 29 -33 c16 -18 29 -43 29
-56 0 -21 22 -56 36 -56 2 0 4 79 4 175 0 142 -3 175 -14 175 -8 0 -22 -24
-32 -57 -25 -78 -55 -93 -181 -93 l-93 0 0 199 0 198 46 7 c70 9 150 7 199 -5
55 -14 109 -70 125 -128 11 -43 20 -53 37 -43 6 5 8 44 5 115 l-5 107 -46 0
c-25 1 -184 3 -353 5 -251 3 -308 1 -308 -10z"/>
</g>
</svg>
