<?xml version="1.0" standalone="no"?>
<!DOCTYPE svg PUBLIC "-//W3C//DTD SVG 20010904//EN"
 "http://www.w3.org/TR/2001/REC-SVG-20010904/DTD/svg10.dtd">
<svg version="1.0" xmlns="http://www.w3.org/2000/svg"
 width="640.000000pt" height="960.000000pt" viewBox="0 0 640.000000 960.000000"
 preserveAspectRatio="xMidYMid meet">

<g transform="translate(0.000000,960.000000) scale(0.100000,-0.100000)"
fill="#000000" stroke="none">
<path d="M2980 6880 c-770 -85 -1428 -590 -1711 -1314 -110 -280 -159 -649
-130 -963 79 -857 673 -1593 1481 -1836 400 -121 852 -112 1247 24 779 268
1345 1016 1404 1853 22 314 -27 654 -131 916 -121 304 -271 532 -491 746 -311
302 -697 494 -1127 559 -120 19 -428 27 -542 15z m170 -303 l-1 -207 51 0 50
0 0 210 0 210 43 -5 c23 -2 76 -7 117 -10 104 -8 298 -49 419 -89 57 -19 105
-37 108 -40 3 -3 -31 -89 -75 -191 l-80 -187 45 -19 c25 -10 46 -19 48 -19 2
0 38 82 80 183 43 100 80 184 82 186 5 6 103 -42 178 -87 143 -86 378 -271
392 -309 4 -10 -42 -63 -133 -154 l-139 -139 38 -37 37 -38 139 143 139 143
55 -68 c105 -131 236 -355 296 -510 l20 -51 -167 -58 c-222 -76 -204 -65 -185
-119 8 -25 18 -45 21 -45 4 0 85 27 180 61 95 34 175 59 178 56 3 -3 16 -47
29 -99 33 -127 55 -307 55 -439 l0 -109 -191 0 -190 0 3 -47 3 -48 188 -3 188
-2 -6 -48 c-27 -205 -62 -351 -121 -509 -20 -54 -37 -99 -39 -101 -1 -1 -77
29 -169 67 l-167 69 -20 -45 c-11 -25 -18 -47 -17 -48 2 -2 76 -33 165 -70
154 -64 162 -69 151 -89 -35 -66 -138 -230 -180 -286 -69 -92 -200 -240 -213
-240 -6 0 -41 33 -77 73 -36 39 -91 99 -121 132 l-56 60 -35 -35 -35 -35 42
-46 c23 -26 79 -87 125 -137 l83 -91 -58 -46 c-105 -83 -256 -180 -366 -234
-60 -29 -111 -51 -114 -47 -5 4 -56 131 -124 303 -8 22 -9 22 -46 7 -21 -9
-42 -19 -46 -24 -5 -4 21 -80 56 -168 l65 -162 -65 -20 c-138 -43 -324 -75
-468 -81 l-60 -3 -3 72 -3 72 -43 0 c-50 0 -56 -10 -56 -94 l0 -49 -97 6 c-54
3 -138 13 -188 22 -94 16 -274 62 -294 74 -9 6 5 51 48 162 34 85 61 159 61
164 0 6 -20 18 -44 27 l-43 16 -63 -163 c-72 -188 -49 -176 -197 -101 -128 64
-391 243 -393 268 0 3 52 66 116 139 l115 133 -36 35 -36 36 -55 -60 c-30 -33
-84 -95 -121 -138 l-66 -77 -30 27 c-130 123 -397 507 -371 533 5 5 77 36 159
70 83 34 151 63 152 64 8 7 -32 86 -42 86 -7 0 -77 -27 -156 -61 -79 -33 -149
-63 -155 -66 -14 -5 -81 162 -114 281 -25 93 -60 293 -60 342 l0 34 180 0 180
0 0 50 0 50 -182 2 -183 3 3 125 c5 185 55 498 82 515 5 3 86 -21 180 -55 94
-33 173 -60 176 -60 5 0 21 39 30 75 4 15 2 25 -5 25 -6 0 -87 27 -180 61
l-170 61 16 41 c36 95 104 229 162 323 62 97 166 239 184 251 5 3 72 -57 148
-133 l139 -139 37 38 38 37 -144 144 -143 143 82 74 c155 141 476 348 500 322
4 -4 22 -44 40 -88 36 -89 112 -268 117 -274 2 -3 66 21 90 34 2 1 -33 86 -77
190 -44 103 -78 190 -76 193 14 14 227 76 334 98 101 20 313 45 345 40 5 -1 8
-95 7 -209z"/>
<path d="M3197 6055 c-4 -33 -12 -130 -17 -215 -5 -85 -12 -186 -16 -223 l-6
-68 -72 64 c-92 82 -255 217 -262 217 -6 0 101 -127 206 -245 l62 -70 -229 -8
c-363 -12 -381 -19 -103 -41 129 -10 263 -21 297 -24 l62 -7 -55 -75 c-80
-109 -86 -121 -38 -86 21 16 60 47 85 68 26 21 49 38 51 38 3 0 11 -54 18
-120 7 -67 16 -123 20 -125 4 -2 13 41 20 97 21 167 12 160 109 84 46 -36 86
-66 89 -66 5 0 3 3 -75 113 l-52 74 170 13 c94 7 230 18 302 24 l132 12 -75 7
c-41 4 -171 11 -288 15 l-213 7 126 145 c151 174 171 204 79 123 -161 -143
-267 -233 -274 -233 -6 0 -18 139 -39 460 -7 105 -7 105 -14 45z"/>
<path d="M2310 5013 c-24 -27 -80 -86 -124 -133 -45 -47 -134 -141 -198 -211
l-117 -125 42 -50 c163 -192 1154 -1350 1248 -1457 l34 -39 55 64 c30 34 75
86 101 113 56 62 391 447 604 695 87 102 218 253 290 335 174 200 284 329 287
336 2 4 -97 110 -220 237 -122 126 -232 242 -243 256 l-20 26 -848 0 -848 0
-43 -47z m730 -73 c0 -5 -6 -13 -14 -17 -8 -4 -76 -66 -151 -138 -127 -120
-170 -155 -179 -144 -14 16 -206 299 -206 303 0 3 124 6 275 6 167 0 275 -4
275 -10z m863 -3 c-28 -46 -208 -297 -213 -297 -6 0 -217 194 -300 276 l-35
34 278 0 c228 0 277 -2 270 -13z m-518 -172 l177 -160 -181 -3 c-100 -1 -263
-1 -363 0 l-183 3 180 162 c99 90 183 162 187 160 4 -1 86 -74 183 -162z m820
-163 c-74 -1 -196 -1 -269 0 l-135 3 116 154 115 154 154 -154 154 -154 -135
-3z m-1716 151 l110 -148 -129 -3 c-71 -1 -189 -1 -263 0 l-135 3 142 147 c77
80 146 147 153 147 6 1 61 -65 122 -146z m280 -570 c55 -170 141 -432 190
-583 49 -151 89 -275 88 -277 -1 -1 -40 44 -87 100 -107 128 -443 526 -568
672 -52 61 -115 135 -141 165 -25 30 -73 86 -106 125 -33 39 -66 78 -74 88
-13 16 3 17 292 17 l306 0 100 -307z m848 295 c-3 -7 -99 -296 -213 -641
l-209 -628 -18 53 c-15 44 -368 1132 -391 1206 l-7 22 421 0 c333 0 421 -3
417 -12z m711 -6 c-7 -10 -148 -175 -313 -367 -284 -330 -556 -648 -637 -746
-36 -43 -32 -30 158 544 l196 587 304 0 c293 0 305 -1 292 -18z"/>
</g>
</svg>
